Coordinates
version=1
nRows=21
nColumns=12
inDegrees=yes

Units are S.I. units (second, meters, Newtons, ...)
Angles are in degrees

endheader
time	SC_y	SC_z	SC_x	AC_y	AC_z	AC_x	GH_y	GH_z	GH_yy	EL_x	PS_y
       0.0              -36.62          27.05          73.14          59.09         -14.23         -2.063         -154.7          21.68         -21.92          22.37          50.08
   0.01928              -36.62          27.05          73.13          59.09         -14.23         -2.061         -154.7          21.68         -21.89          22.39          50.09
   0.03857              -36.61          27.05          73.13          59.08         -14.23          -2.06         -154.6          21.68         -21.86           22.4          50.11
   0.05785              -36.61          27.05          73.13          59.08         -14.23         -2.058         -154.6          21.68         -21.84          22.42          50.12
   0.07714              -36.61          27.05          73.12          59.07         -14.23         -2.056         -154.6          21.68          -21.8          22.43          50.14
   0.09642               -36.6          27.05          73.12          59.07         -14.23         -2.054         -154.5          21.68         -21.77          22.45          50.16
    0.1157               -36.6          27.05          73.11          59.06         -14.23         -2.052         -154.5          21.68         -21.73          22.47          50.17
     0.135               -36.6          27.05          73.11          59.06         -14.23          -2.05         -154.4          21.68         -21.69          22.48          50.19
    0.1543              -36.59          27.05           73.1          59.05         -14.23         -2.048         -154.4          21.69         -21.65           22.5          50.22
    0.1736              -36.59          27.06           73.1          59.04         -14.23         -2.045         -154.3          21.69         -21.61          22.53          50.24
    0.1928              -36.58          27.06          73.09          59.04         -14.23         -2.042         -154.2          21.69         -21.56          22.55          50.27
    0.2121              -36.58          27.06          73.09          59.03         -14.23         -2.039         -154.2          21.69         -21.51          22.58          50.29
    0.2314              -36.57          27.06          73.08          59.02         -14.23         -2.036         -154.1          21.69         -21.45           22.6          50.32
    0.2507              -36.57          27.06          73.07          59.01         -14.24         -2.033         -154.0          21.69         -21.39          22.63          50.35
      0.27              -36.56          27.06          73.06           59.0         -14.24         -2.029         -154.0          21.69         -21.33          22.66          50.39
    0.2893              -36.55          27.07          73.06          58.99         -14.24         -2.025         -153.9          21.69         -21.26           22.7          50.42
    0.3086              -36.54          27.07          73.05          58.98         -14.24         -2.021         -153.8           21.7         -21.18          22.74          50.46
    0.3278              -36.54          27.07          73.04          58.97         -14.24         -2.016         -153.7           21.7          -21.1          22.78          50.51
    0.3471              -36.53          27.07          73.02          58.95         -14.24         -2.011         -153.5           21.7         -21.01          22.82          50.56
    0.3664              -36.52          27.07          73.01          58.94         -14.24         -2.005         -153.4           21.7         -20.91          22.87          50.61
    0.3857               -36.5          27.08           73.0          58.92         -14.24         -1.999         -153.3           21.7          -20.8          22.92          50.67
